<svg width="24" height="24" viewBox="0 0 24 24" fill="none" xmlns="http://www.w3.org/2000/svg">
<path fill-rule="evenodd" clip-rule="evenodd" d="M19.4884 0.0968345C19.4052 0.0340144 19.3037 2.16834e-05 19.1994 0C19.0951 2.16834e-05 18.9937 0.0340144 18.9104 0.0968345C18.8271 0.159655 18.7666 0.247884 18.7379 0.348173L18.2176 2.16968C18.1055 2.56196 17.8954 2.91921 17.6069 3.20768C17.3184 3.49616 16.9611 3.70634 16.5688 3.81838L14.7473 4.33872C14.647 4.36743 14.5589 4.42799 14.4961 4.51124C14.4334 4.5945 14.3994 4.69592 14.3994 4.80017C14.3994 4.90443 14.4334 5.00585 14.4961 5.0891C14.5589 5.17236 14.647 5.23292 14.7473 5.26163L16.5688 5.78197C16.9611 5.894 17.3184 6.10419 17.6069 6.39266C17.8954 6.68114 18.1055 7.03839 18.2176 7.43067L18.7379 9.25217C18.7667 9.3524 18.8272 9.44055 18.9105 9.5033C18.9937 9.56606 19.0952 9.6 19.1994 9.6C19.3037 9.6 19.4051 9.56606 19.4884 9.5033C19.5716 9.44055 19.6322 9.3524 19.6609 9.25217L20.1812 7.43067C20.2933 7.03839 20.5035 6.68114 20.792 6.39266C21.0804 6.10419 21.4377 5.894 21.83 5.78197L23.6516 5.26163C23.7518 5.23292 23.84 5.17236 23.9027 5.0891C23.9655 5.00585 23.9994 4.90443 23.9994 4.80017C23.9994 4.69592 23.9655 4.5945 23.9027 4.51124C23.84 4.42799 23.7518 4.36743 23.6516 4.33872L21.83 3.81838C21.83 3.81838 21.0804 3.49616 20.792 3.20768C20.5035 2.91921 20.2933 2.56196 20.1812 2.16968L19.6609 0.348173C19.6322 0.247884 19.5717 0.159655 19.4884 0.0968345ZM10.1781 4.99396C10.0115 4.86832 9.80861 4.80034 9.6 4.80029C9.39139 4.80034 9.18847 4.86832 9.02195 4.99396C8.85542 5.1196 8.73435 5.29606 8.67705 5.49664L7.63634 9.13965C7.41226 9.92421 6.99188 10.6387 6.41491 11.2157C5.83794 11.7926 5.12341 12.213 4.33882 12.437L0.695678 13.4777C0.495222 13.5351 0.318911 13.6563 0.193399 13.8228C0.0678876 13.9893 0 14.1921 0 14.4006C0 14.6092 0.0678876 14.812 0.193399 14.9785C0.318911 15.145 0.495222 15.2661 0.695678 15.3236L4.33882 16.3642C5.12341 16.5883 5.83794 17.0087 6.41491 17.5856C6.99188 18.1626 7.41226 18.8771 7.63634 19.6616L8.67705 23.3046C8.73448 23.5051 8.8556 23.6814 9.02212 23.8069C9.18863 23.9324 9.39148 24.0003 9.6 24.0003C9.80852 24.0003 10.0114 23.9324 10.1779 23.8069C10.3444 23.6814 10.4655 23.5051 10.5229 23.3046L11.5637 19.6616C11.7877 18.8771 12.2081 18.1626 12.7851 17.5856C13.3621 17.0087 14.0766 16.5883 14.8612 16.3642L18.5043 15.3236C18.7048 15.2661 18.8811 15.145 19.0066 14.9785C19.1321 14.812 19.2 14.6092 19.2 14.4006C19.2 14.1921 19.1321 13.9893 19.0066 13.8228C18.8811 13.6563 18.7048 13.5351 18.5043 13.4777L14.8612 12.437C14.8612 12.437 13.3621 11.7926 12.7851 11.2157C12.2081 10.6387 11.7877 9.92421 11.5637 9.13965L10.5229 5.49664C10.4656 5.29606 10.3446 5.1196 10.1781 4.99396Z" fill="#6248FF"/>
</svg>
